<?xml version="1.0" standalone="no"?>
<!DOCTYPE svg PUBLIC "-//W3C//DTD SVG 20010904//EN"
 "http://www.w3.org/TR/2001/REC-SVG-20010904/DTD/svg10.dtd">
<svg version="1.0" xmlns="http://www.w3.org/2000/svg"
 width="600.000000pt" height="600.000000pt" viewBox="0 0 600.000000 600.000000"
 preserveAspectRatio="xMidYMid meet">
<metadata>
Created by potrace 1.11, written by Peter Selinger 2001-2013
</metadata>
<g transform="translate(0.000000,600.000000) scale(0.100000,-0.100000)"
fill="#000000" stroke="none">
<path d="M2827 2906 c-47 -7 -82 -18 -87 -26 -6 -8 -10 -54 -10 -101 l0 -86
-42 -12 c-24 -7 -81 -30 -127 -52 -46 -21 -89 -39 -95 -39 -6 0 -38 27 -71 60
-33 33 -66 60 -75 60 -20 0 -159 -112 -226 -182 -74 -77 -154 -179 -154 -198
0 -9 27 -42 60 -75 33 -33 60 -65 60 -71 0 -6 -18 -49 -39 -95 -22 -46 -45
-103 -52 -126 l-12 -43 -88 0 c-63 0 -92 -4 -102 -14 -17 -18 -37 -162 -37
-271 0 -109 20 -253 37 -271 10 -10 39 -14 102 -14 l88 0 12 -42 c7 -24 30
-81 52 -127 21 -46 39 -89 39 -95 0 -6 -27 -38 -60 -71 -33 -33 -60 -66 -60
-75 0 -20 112 -159 182 -226 77 -74 179 -154 198 -154 9 0 42 27 75 60 33 33
65 60 71 60 6 0 49 -18 95 -39 46 -22 103 -45 127 -52 l42 -12 0 -88 c0 -63 4
-92 14 -102 18 -17 162 -37 271 -37 109 0 253 20 271 37 10 10 14 39 14 102
l0 88 43 12 c23 7 80 30 126 52 46 21 89 39 95 39 6 0 38 -27 71 -60 33 -33
66 -60 75 -60 19 0 121 80 198 154 70 67 182 206 182 226 0 9 -27 42 -60 75
-33 33 -60 65 -60 71 0 6 18 49 39 95 22 46 45 103 52 127 l12 42 88 0 c63 0
92 4 102 14 17 18 37 162 37 271 0 109 -20 253 -37 271 -10 10 -39 14 -102 14
l-88 0 -12 43 c-7 23 -30 80 -52 126 -21 46 -39 89 -39 95 0 6 27 38 60 71 33
33 60 66 60 75 0 20 -112 159 -182 226 -77 74 -179 154 -198 154 -9 0 -42 -27
-75 -60 -33 -33 -65 -60 -71 -60 -6 0 -49 18 -95 39 -46 22 -103 45 -126 52
l-43 12 0 88 c0 63 -4 92 -14 102 -33 33 -305 47 -459 23z m353 -64 l45 -7 5
-95 5 -95 91 -31 c51 -17 124 -47 164 -67 39 -21 77 -37 84 -37 6 0 38 27 71
60 33 33 63 60 68 60 33 0 297 -264 297 -297 0 -5 -27 -35 -60 -68 -33 -33
-60 -65 -60 -71 0 -6 18 -47 39 -90 22 -44 52 -116 66 -162 31 -93 27 -90 145
-94 l75 -3 7 -45 c3 -25 7 -99 7 -165 0 -66 -4 -140 -7 -165 l-7 -45 -95 -5
-95 -5 -31 -91 c-17 -51 -47 -124 -67 -164 -21 -39 -37 -77 -37 -84 0 -6 27
-38 60 -71 33 -33 60 -63 60 -68 0 -33 -264 -297 -297 -297 -5 0 -35 27 -68
60 -33 33 -65 60 -71 60 -6 0 -47 -18 -90 -39 -44 -22 -116 -52 -162 -66 -93
-31 -90 -27 -94 -145 l-3 -75 -45 -7 c-58 -8 -272 -8 -330 0 l-45 7 -5 95 -5
95 -91 31 c-51 17 -124 47 -164 67 -39 21 -77 37 -84 37 -6 0 -38 -27 -71 -60
-33 -33 -63 -60 -68 -60 -33 0 -297 264 -297 297 0 5 27 35 60 68 33 33 60 65
60 71 0 6 -18 47 -39 90 -22 44 -52 116 -66 162 -31 93 -27 90 -145 94 l-75 3
-7 45 c-3 25 -7 99 -7 165 0 66 4 140 7 165 l7 45 95 5 95 5 31 91 c17 51 47
124 67 164 21 39 37 77 37 84 0 6 -27 38 -60 71 -33 33 -60 63 -60 68 0 33
264 297 297 297 5 0 35 -27 68 -60 33 -33 65 -60 71 -60 6 0 47 18 90 39 44
22 116 52 162 66 93 31 90 27 94 145 l3 75 40 6 c55 9 280 9 335 1z"/>
<path d="M2925 2291 c-214 -35 -398 -165 -492 -346 -57 -110 -76 -189 -76
-310 0 -184 62 -335 193 -465 130 -131 281 -193 465 -193 184 0 335 62 465
193 131 130 193 281 193 465 0 121 -19 200 -76 310 -79 154 -245 286 -412 329
-77 19 -196 27 -260 17z m217 -75 c125 -27 261 -111 337 -209 237 -308 140
-735 -207 -907 -338 -168 -759 38 -838 408 -89 424 284 797 708 708z"/>
</g>
</svg>
